<svg width="180" height="84" viewBox="0 0 180 84" fill="none" xmlns="http://www.w3.org/2000/svg">
<rect width="180" height="83.9496" rx="24" fill="#E2BF98"/>
<path d="M44.0064 73.0478C43.2513 73.9209 42.213 74.6761 40.3252 74.6761H35.582V57.8745H40.3252C42.2132 57.8745 43.2513 58.6297 44.0064 59.5027C45.3514 61.0602 45.2571 64.0806 45.2571 66.2754C45.2571 68.4698 45.3514 71.4904 44.0064 73.0478ZM41.5051 61.6265C41.2927 61.2018 40.8678 60.8951 40.2543 60.8951H38.9328V71.6557H40.2543C40.8678 71.6557 41.2927 71.3488 41.5051 70.9242C41.9063 70.1454 41.9063 68.1161 41.9063 66.2518C41.9063 64.3874 41.9063 62.4053 41.5051 61.6265Z" fill="#010203"/>
<path d="M47.3555 74.6761V57.8745H50.7064V74.6761H47.3555Z" fill="#010203"/>
<path d="M59.3461 74.6761H55.8537L52.1016 57.8745H55.7828L57.5997 69.7442L59.4403 57.8745H63.1215L59.3461 74.6761Z" fill="#010203"/>
<path d="M72.6301 73.1895C71.8513 74.1098 70.8131 74.8649 68.9254 74.8649C67.0374 74.8649 66.0464 74.1098 65.2677 73.1895C63.9227 71.5847 64.0171 68.5406 64.0171 66.2754C64.0171 64.01 63.9227 60.9659 65.2677 59.3613C66.0466 58.441 67.0376 57.6859 68.9254 57.6859C70.8131 57.6859 71.8514 58.4412 72.6301 59.3613C73.9751 60.9659 73.8808 64.0101 73.8808 66.2754C73.8808 68.5408 73.9751 71.5847 72.6301 73.1895ZM70.0815 61.3669C69.8927 60.9894 69.5388 60.7061 68.9252 60.7061C68.3116 60.7061 68.0048 60.9894 67.8161 61.3669C67.4149 62.1457 67.3677 64.2459 67.3677 66.2752C67.3677 68.3047 67.4149 70.4048 67.8161 71.1835C68.0049 71.5612 68.3116 71.8443 68.9252 71.8443C69.5386 71.8443 69.8925 71.5612 70.0815 71.1835C70.4827 70.4048 70.5298 68.3047 70.5298 66.2752C70.53 64.2459 70.4827 62.1457 70.0815 61.3669Z" fill="#010203"/>
<path d="M82.8985 74.6761L79.3353 66.464V74.6761H75.9844V57.8745H78.9104L82.403 66.0865V57.8745H85.7538V74.6761H82.8985Z" fill="#010203"/>
<path d="M95.2619 74.6761L91.6986 66.464V74.6761H88.3477V57.8745H91.2737L94.7663 66.0865V57.8745H98.1171V74.6761H95.2619Z" fill="#010203"/>
<path d="M100.711 74.6761V57.8745H108.451V60.8951H104.062V64.6943H107.838V67.7149H104.062V71.6557H108.451V74.6762H100.711V74.6761Z" fill="#010203"/>
<path d="M120.668 65.811V57.8898H122.248V64.3868H124.317V65.8108H120.668V65.811Z" fill="#010203"/>
<path d="M125.086 65.811V57.8898H128.735V59.3137H126.666V61.105H128.446V62.529H126.666V64.3868H128.735V65.8108H125.086V65.811Z" fill="#010203"/>
<path d="M133.297 65.3104C132.941 65.6552 132.34 65.9001 131.572 65.9001C130.793 65.9001 130.215 65.6776 129.859 65.3214C129.469 64.9321 129.336 64.376 129.336 63.5637H130.916C130.916 63.8865 130.938 64.12 131.083 64.287C131.172 64.3872 131.328 64.4761 131.572 64.4761C131.817 64.4761 131.973 64.4094 132.073 64.2758C132.184 64.1424 132.229 63.931 132.229 63.6083C132.229 62.8518 132.106 62.7184 131.539 62.4847L130.538 62.073C129.737 61.7392 129.403 61.3165 129.403 60.0817C129.403 59.3474 129.637 58.7355 130.115 58.324C130.493 58.0013 130.972 57.8233 131.572 57.8233C132.273 57.8233 132.785 58.0014 133.13 58.324C133.564 58.7244 133.742 59.3586 133.742 60.1597H132.162C132.162 59.8815 132.162 59.6256 132.028 59.4476C131.939 59.3252 131.806 59.2473 131.572 59.2473C131.35 59.2473 131.205 59.3363 131.116 59.4586C131.016 59.5922 130.982 59.759 130.982 60.0259C130.982 60.5266 131.071 60.6712 131.528 60.8604L132.518 61.2609C133.519 61.6726 133.808 62.1176 133.808 63.5527C133.808 64.3536 133.708 64.9099 133.297 65.3104Z" fill="#010203"/>
<path d="M124.606 74.1376C124.273 74.4823 123.75 74.6605 122.96 74.6605H120.668V66.7393H122.96C123.75 66.7393 124.273 66.9174 124.617 67.2511C124.996 67.6183 125.14 68.1968 125.14 68.9533C125.14 69.465 125.096 69.8987 124.762 70.2325C124.662 70.3326 124.551 70.4216 124.395 70.4996C124.539 70.5774 124.651 70.6776 124.751 70.7776C125.118 71.1893 125.14 71.779 125.14 72.2239C125.141 73.0806 125.007 73.726 124.606 74.1376ZM122.726 68.1632H122.248V69.8543H122.726C123.349 69.8543 123.561 69.5984 123.561 69.0087C123.561 68.4081 123.36 68.1632 122.726 68.1632ZM122.749 71.1893H122.248V73.2363H122.749C123.383 73.2363 123.561 72.936 123.561 72.2129C123.561 71.4896 123.36 71.1893 122.749 71.1893Z" fill="#010203"/>
<path d="M129.702 74.6605L129.446 73.4255H127.621L127.365 74.6605H125.719L127.755 66.7393H129.312L131.348 74.6605H129.702ZM128.533 69.0644L127.922 72.0015H129.145L128.533 69.0644Z" fill="#010203"/>
<path d="M132.027 74.6605V66.7393H133.607V74.6605H132.027Z" fill="#010203"/>
<path d="M138.088 74.6605L136.408 70.7889V74.6605H134.828V66.7393H136.208L137.854 70.6108V66.7393H139.434V74.6605H138.088Z" fill="#010203"/>
<path d="M144.363 74.1598C144.007 74.5045 143.406 74.7495 142.639 74.7495C141.86 74.7495 141.281 74.5269 140.925 74.1708C140.536 73.7815 140.402 73.2253 140.402 72.4131H141.982C141.982 72.7358 142.004 72.9694 142.149 73.1363C142.238 73.2365 142.394 73.3255 142.639 73.3255C142.883 73.3255 143.039 73.2587 143.139 73.1252C143.251 72.9918 143.295 72.7804 143.295 72.4577C143.295 71.7012 143.173 71.5678 142.605 71.3341L141.604 70.9224C140.803 70.5886 140.469 70.1659 140.469 68.9311C140.469 68.1968 140.703 67.5849 141.181 67.1734C141.56 66.8506 142.038 66.6727 142.639 66.6727C143.34 66.6727 143.851 66.8508 144.196 67.1734C144.63 67.5737 144.808 68.208 144.808 69.009H143.228C143.228 68.7309 143.228 68.475 143.095 68.297C143.006 68.1746 142.872 68.0966 142.639 68.0966C142.416 68.0966 142.271 68.1856 142.182 68.308C142.082 68.4416 142.049 68.6083 142.049 68.8753C142.049 69.376 142.138 69.5206 142.594 69.7098L143.584 70.1103C144.585 70.522 144.875 70.9669 144.875 72.4021C144.875 73.2031 144.775 73.7593 144.363 74.1598Z" fill="#010203"/>
<path d="M115.635 57.8911H113.797V74.6764H115.635V57.8911Z" fill="#010203"/>
<path d="M41.7024 48.5058C39.6457 50.4482 37.1896 51.419 33.8193 51.419C29.249 51.419 26.8499 49.5912 24.965 47.3635C21.7087 43.4789 21.9371 36.1668 21.9371 30.6825C21.9371 25.1987 21.7087 17.7723 24.965 13.8879C26.8499 11.6602 29.249 9.83191 33.8193 9.83191C37.1896 9.83191 39.6458 10.8031 41.7024 12.7454C43.8161 14.7449 45.13 17.9438 45.3015 21.8282H37.1896C37.1325 20.6858 37.0183 19.5434 36.5612 18.6866C36.1044 17.7154 35.3043 17.1441 33.8193 17.1441C32.3337 17.1441 31.5914 17.8297 31.1341 18.7437C30.1633 20.6287 30.0489 25.713 30.0489 30.6259C30.0489 35.5387 30.1633 40.6225 31.1341 42.5081C31.5914 43.4217 32.3337 44.1072 33.8193 44.1072C35.3043 44.1072 36.1613 43.4789 36.6184 42.5081C37.0752 41.6508 37.1896 40.5085 37.2467 39.3662H45.3586C45.1871 43.2502 43.8161 46.5067 41.7024 48.5058Z" fill="#010203"/>
<path d="M64.1501 50.9622L62.8361 44.6211H53.4678L52.1538 50.9622H43.6992L54.1533 10.2891H62.1508L72.6047 50.9624H64.1501V50.9622Z" fill="#010203"/>
<path d="M92.2623 48.3917C90.4343 50.1626 87.3495 51.4191 83.408 51.4191C79.4092 51.4191 76.4386 50.2768 74.6104 48.4486C72.6113 46.4495 71.9258 43.5931 71.9258 39.4229H80.0373C80.0373 41.0797 80.1517 42.2793 80.8941 43.1361C81.3512 43.6502 82.151 44.107 83.4078 44.107C84.6645 44.107 85.4642 43.7642 85.9782 43.0787C86.5496 42.3932 86.7781 41.3078 86.7781 39.6513C86.7781 35.7665 86.1497 35.0812 83.2365 33.8815L78.095 31.7678C73.9822 30.0542 72.2684 27.8836 72.2684 21.5424C72.2684 17.7721 73.4679 14.6302 75.9244 12.5167C77.8669 10.8603 80.3231 9.94623 83.408 9.94623C87.0067 9.94623 89.6346 10.8603 91.4055 12.517C93.6333 14.5734 94.5474 17.8297 94.5474 21.9428H86.4355C86.4355 20.5145 86.4355 19.2007 85.7499 18.2865C85.2931 17.6582 84.6075 17.2582 83.408 17.2582C82.2652 17.2582 81.5229 17.7153 81.0656 18.3438C80.5515 19.0293 80.3801 19.8857 80.3801 21.2573C80.3801 23.8277 80.8372 24.5705 83.1792 25.5415L88.2635 27.5979C93.4046 29.7116 94.8902 31.9967 94.8902 39.3661C94.8902 43.4789 94.3761 46.3353 92.2623 48.3917Z" fill="#010203"/>
<path d="M97.1133 50.9622V10.2891H105.225V50.9624H97.1133V50.9622Z" fill="#010203"/>
<path d="M125.39 50.9622L116.764 31.0825V50.9622H108.652V10.2891H115.736L124.19 30.1684V10.2891H132.302V50.9624H125.39V50.9622Z" fill="#010203"/>
<path d="M155.382 47.3635C153.497 49.5913 150.983 51.419 146.413 51.419C141.843 51.419 139.444 49.5912 137.559 47.3635C134.303 43.4788 134.531 36.1095 134.531 30.6257C134.531 25.1414 134.303 17.7723 137.559 13.8879C139.444 11.6602 141.843 9.83191 146.413 9.83191C150.983 9.83191 153.497 11.6602 155.382 13.8879C158.638 17.7723 158.409 25.1414 158.409 30.6257C158.409 36.1095 158.638 43.4789 155.382 47.3635ZM149.212 18.7435C148.755 17.8296 147.898 17.1439 146.413 17.1439C144.928 17.1439 144.185 17.8296 143.728 18.7435C142.757 20.6286 142.643 25.7129 142.643 30.6257C142.643 35.5385 142.757 40.6223 143.728 42.5079C144.185 43.4215 144.928 44.107 146.413 44.107C147.898 44.107 148.755 43.4215 149.212 42.5079C150.183 40.6223 150.298 35.5385 150.298 30.6257C150.298 25.7129 150.183 20.6286 149.212 18.7435Z" fill="#010203"/>
<mask id="mask0_169_155" style="mask-type:luminance" maskUnits="userSpaceOnUse" x="43" y="10" width="30" height="41">
<path d="M72.6045 50.9624L62.1506 10.2892H54.1531C54.1531 10.2892 44.1396 48.76 43.6992 50.9625H52.1538L53.4678 44.6214C56.5863 44.6214 62.8363 44.6214 62.8363 44.6214L64.1503 50.9625H72.6045V50.9624ZM62.836 44.6214L64.1499 50.9625H72.6045" fill="white"/>
</mask>
<g mask="url(#mask0_169_155)">
<path opacity="0.55" d="M53.143 24.9974L48.6746 31.3245L48.2109 45.9916L53.8088 40.5605" fill="url(#paint0_linear_169_155)"/>
<path opacity="0.55" d="M55.3641 24.9974L51.7695 30.0871V45.0331L56.189 40.7984" fill="url(#paint1_linear_169_155)"/>
<path opacity="0.55" d="M57.3797 24.9974L53.7852 30.0871V45.2593L58.4335 40.7806" fill="url(#paint2_linear_169_155)"/>
<path opacity="0.55" d="M63.1142 32.3149L57.3008 37.9161V27.8922L60.8953 22.8026C60.8953 22.8026 60.92 22.7266 61.2055 22.6967C61.491 22.6669 62.7923 22.6303 62.9948 23.9681C63.1973 25.3059 63.0806 31.4265 63.0806 31.4265C63.0806 31.4265 62.5632 32.4222 61.9492 33.0139" fill="url(#paint3_linear_169_155)"/>
<path d="M52.3632 27.6919V41.1138L53.8089 40.5605V26.6747C53.8089 25.6157 54.1897 24.8542 55.207 23.8785C53.553 24.0925 52.2799 25.4073 52.3632 27.6919ZM54.7429 27.5492V41.3637L56.1885 40.7986V26.5022C56.1885 25.4135 56.5693 24.6281 57.5866 23.6286C55.9269 23.8486 54.6537 25.1991 54.7429 27.5492ZM60.8826 22.7778C61.1802 22.8193 62.5365 22.4862 62.5365 24.3364V29.5541C62.4949 31.1604 62.3223 32.3503 60.2043 33.2784C62.7923 33.32 63.8989 31.7137 63.8989 30.6964V24.5804C63.8514 23.2656 62.4058 22.1054 60.8826 22.7778ZM56.9917 27.1268V41.3637L58.4316 40.7807V26.0439C58.4316 24.9195 58.7052 23.8486 59.8357 23.0811C58.1816 23.3072 56.9026 24.6994 56.9917 27.1268Z" fill="white"/>
</g>
<defs>
<linearGradient id="paint0_linear_169_155" x1="48.2109" y1="35.4946" x2="53.8087" y2="35.4946" gradientUnits="userSpaceOnUse">
<stop stop-opacity="0"/>
<stop offset="0.15" stop-opacity="0.0235"/>
<stop offset="1" stop-color="#828486"/>
</linearGradient>
<linearGradient id="paint1_linear_169_155" x1="51.7695" y1="35.0153" x2="56.1889" y2="35.0153" gradientUnits="userSpaceOnUse">
<stop stop-opacity="0"/>
<stop offset="0.15" stop-opacity="0.0235"/>
<stop offset="1" stop-color="#828486"/>
</linearGradient>
<linearGradient id="paint2_linear_169_155" x1="53.7851" y1="35.1284" x2="58.4335" y2="35.1284" gradientUnits="userSpaceOnUse">
<stop stop-opacity="0"/>
<stop offset="0.15" stop-opacity="0.0235"/>
<stop offset="1" stop-color="#828486"/>
</linearGradient>
<linearGradient id="paint3_linear_169_155" x1="57.3008" y1="30.3018" x2="63.1141" y2="30.3018" gradientUnits="userSpaceOnUse">
<stop stop-opacity="0"/>
<stop offset="0.15" stop-opacity="0.0235"/>
<stop offset="1" stop-color="#828486"/>
</linearGradient>
</defs>
</svg>
